HIERARCHY
ROOT Hips
{
 OFFSET 0.000000 0.000000 0.000000
 CHANNELS 6 Xposition Yposition Zposition Yrotation Xrotation Zrotation
 JOINT Chest
 {
  OFFSET 0.000000 9.581000 -0.001100
  CHANNELS 3 Yrotation Xrotation Zrotation
  JOINT Chest2
  {
   OFFSET 0.000000 9.561100 0.002200
   CHANNELS 3 Yrotation Xrotation Zrotation
   JOINT Chest3
   {
    OFFSET 0.000000 9.521100 0.000000
    CHANNELS 3 Yrotation Xrotation Zrotation
    JOINT Chest4
    {
     OFFSET 0.000000 9.511400 0.000000
     CHANNELS 3 Yrotation Xrotation Zrotation
     JOINT Neck
     {
      OFFSET 0.000000 14.375100 0.000000
      CHANNELS 3 Yrotation Xrotation Zrotation
      JOINT Head
      {
       OFFSET 0.000000 8.901200 0.004600
       CHANNELS 3 Yrotation Xrotation Zrotation
       End Site
       {
        OFFSET 0.000000 16.962200 0.002400
       }
      }
     }
     JOINT RightCollar
     {
      OFFSET -2.920100 9.518800 0.000000
      CHANNELS 3 Yrotation Xrotation Zrotation
      JOINT RightShoulder
      {
       OFFSET -13.664500 0.000000 0.000000
       CHANNELS 3 Yrotation Xrotation Zrotation
       JOINT RightElbow
       {
        OFFSET 0.000000 -29.999200 0.000000
        CHANNELS 3 Yrotation Xrotation Zrotation
        JOINT RightWrist
        {
         OFFSET 0.000000 -24.253600 0.000000
         CHANNELS 3 Yrotation Xrotation Zrotation
         End Site
         {
          OFFSET 0.000000 -17.918900 0.000000
         }
        }
       }
      }
     }
     JOINT LeftCollar
     {
      OFFSET 2.920100 9.518800 0.000000
      CHANNELS 3 Yrotation Xrotation Zrotation
      JOINT LeftShoulder
      {
       OFFSET 13.664500 0.000000 0.000000
       CHANNELS 3 Yrotation Xrotation Zrotation
       JOINT LeftElbow
       {
        OFFSET 0.000000 -29.999200 0.000000
        CHANNELS 3 Yrotation Xrotation Zrotation
        JOINT LeftWrist
        {
         OFFSET 0.000000 -24.253600 0.000000
         CHANNELS 3 Yrotation Xrotation Zrotation
         End Site
         {
          OFFSET 0.000000 -17.918900 0.000000
         }
        }
       }
      }
     }
    }
   }
  }
 }
 JOINT RightHip
 {
  OFFSET -7.797300 0.005300 0.000500
  CHANNELS 3 Yrotation Xrotation Zrotation
  JOINT RightKnee
  {
   OFFSET 0.000000 -40.663400 -0.000500
   CHANNELS 3 Yrotation Xrotation Zrotation
   JOINT RightAnkle
   {
    OFFSET 0.000000 -39.523700 -0.000900
    CHANNELS 3 Yrotation Xrotation Zrotation
    JOINT RightToe
    {
     OFFSET 0.000000 -6.418000 14.485300
     CHANNELS 3 Yrotation Xrotation Zrotation
     End Site
     {
      OFFSET 0.000000 -1.465200 6.326400
     }
    }
   }
  }
 }
 JOINT LeftHip
 {
  OFFSET 7.797300 0.005300 0.000500
  CHANNELS 3 Yrotation Xrotation Zrotation
  JOINT LeftKnee
  {
   OFFSET 0.000000 -40.663400 -0.000500
   CHANNELS 3 Yrotation Xrotation Zrotation
   JOINT LeftAnkle
   {
    OFFSET 0.000000 -39.523700 -0.000900
    CHANNELS 3 Yrotation Xrotation Zrotation
    JOINT LeftToe
    {
     OFFSET 0.000000 -6.418000 14.485300
     CHANNELS 3 Yrotation Xrotation Zrotation
     End Site
     {
      OFFSET 0.000000 -1.465200 6.326400
     }
    }
   }
  }
 }
}
MOTION
Frames: 7
Frame Time: 0.008333
0.000000 86.422400 0.000000 0.000000 -5.767877 0.000000 0.000000 11.653817 0.000000 0.000000 -5.885947 0.000000 0.000000 -0.000000 0.000000 0.000000 -0.000000 0.000000 0.000000 12.528835 0.000000 0.000000 0.711642 0.000000 0.000000 -0.000000 0.000000 0.000000 0.000000 -90.000000 0.000000 -2.309062 0.000000 0.000000 2.309062 0.000000 0.000000 -0.000000 0.000000 0.000000 -0.000000 90.000000 0.000000 -2.309062 0.000000 0.000000 2.309062 0.000000 0.000000 8.520406 0.000000 0.000000 1.905762 0.000000 -0.000000 -4.658285 0.000000 0.000000 -0.000000 0.000000 0.000000 8.520406 0.000000 0.000000 1.905762 0.000000 -0.000000 -4.658285 0.000000 0.000000 -0.000000 0.000000
-18.411132 126.886809 19.246146 -173.396417 -46.611728 -4.637897 0.129813 26.686501 1.882450 -0.036249 4.534197 0.305185 -0.047336 7.194263 0.485834 0.040940 21.836443 1.514581 3.799275 14.638347 3.316058 3.268544 -10.289339 2.645483 0.229917 1.553095 2.194248 3.305152 -7.132972 -9.778850 -100.490103 -60.972039 146.929954 5.222971 -1.120012 -4.115009 -10.351662 -2.284916 0.165324 -9.527224 -13.069351 11.474790 63.245700 -58.929559 -108.292656 -4.054629 -9.166561 1.214825 -20.524160 -17.027404 0.762803 -6.322276 67.453206 7.964569 13.917518 -10.317613 -4.224509 0.001454 -0.004090 0.000644 14.835100 -7.560664 0.796482 -176.758747 84.911182 178.068220 -11.989707 -14.257065 4.661660 0.000671 0.001205 0.000297
-18.410964 126.886835 19.246722 -173.396013 -46.616156 -4.638822 0.144529 26.685984 1.883390 -0.044239 4.538553 0.308831 -0.041734 7.191311 0.485875 0.046423 21.837321 1.515173 3.781619 14.637935 3.320314 3.233874 -10.292713 2.647266 0.225575 1.551562 2.199464 3.327094 -7.131544 -9.778685 -100.506107 -60.975528 146.931244 5.221625 -1.119959 -4.125751 -10.364632 -2.287634 0.174627 -9.510248 -13.060990 11.471017 63.238433 -58.928167 -108.301846 -4.051469 -9.168131 1.228993 -20.514340 -17.027853 0.759481 -6.335939 67.452340 7.956565 13.929049 -10.305385 -4.230341 0.002783 -0.005194 0.001233 14.835504 -7.559473 0.798740 -176.739537 84.906979 178.089909 -11.990332 -14.255918 4.666319 0.000790 0.001126 0.000350
-18.410927 126.887081 19.247217 -173.392418 -46.623028 -4.641133 0.151022 26.687239 1.885611 -0.044287 4.539231 0.308594 -0.039250 7.192421 0.486199 0.051232 21.838595 1.516022 3.762434 14.638115 3.323253 3.220381 -10.292558 2.648957 0.220832 1.550834 2.203478 3.331546 -7.129285 -9.776677 -100.518335 -60.977607 146.942136 5.216645 -1.116835 -4.131856 -10.377047 -2.290710 0.182541 -9.493108 -13.050704 11.468250 63.234869 -58.926905 -108.314416 -4.028638 -9.165953 1.233760 -20.514025 -17.022877 0.755828 -6.337721 67.448906 7.954220 13.934035 -10.297787 -4.231143 0.003766 -0.004835 0.001669 14.834549 -7.555411 0.798887 -176.746739 84.902483 178.086743 -11.989607 -14.256193 4.665305 0.000124 0.000805 0.000055
-18.411062 126.887112 19.248011 -173.387219 -46.628669 -4.643077 0.157946 26.686845 1.886973 -0.045223 4.539730 0.309632 -0.038677 7.195022 0.485454 0.054679 21.839666 1.516636 3.720811 14.639654 3.305026 3.196968 -10.290813 2.653695 0.226183 1.540141 2.200495 3.323478 -7.121904 -9.763919 -100.518243 -60.982788 146.946389 5.210191 -1.107030 -4.106729 -10.390108 -2.301371 0.194154 -9.478277 -13.034526 11.461806 63.231539 -58.925844 -108.326084 -4.023296 -9.168912 1.238100 -20.514086 -17.022052 0.750594 -6.341768 67.450684 7.951619 13.936202 -10.293495 -4.244585 0.003457 -0.006360 0.001532 14.831437 -7.551748 0.795358 -176.790489 84.897581 178.048519 -11.989926 -14.259278 4.660718 0.000160 0.001109 0.000071
-18.411520 126.886959 19.249046 -173.378693 -46.633083 -4.644989 0.157950 26.688250 1.884829 -0.036381 4.536831 0.307733 -0.049580 7.199846 0.488463 0.055813 21.840030 1.516697 3.708013 14.641092 3.300538 3.153897 -10.286274 2.638354 0.229223 1.530863 2.197690 3.320518 -7.120043 -9.752687 -100.505950 -60.989929 146.936985 5.210394 -1.105241 -4.101279 -10.393834 -2.326699 0.208175 -9.465549 -13.010371 11.449896 63.234128 -58.917227 -108.335004 -4.023261 -9.165937 1.235027 -20.516512 -17.022177 0.745241 -6.349113 67.453250 7.945883 13.929919 -10.292765 -4.269371 0.001511 -0.006584 0.000670 14.826366 -7.548561 0.791984 -176.807658 84.893988 178.033025 -11.993447 -14.261575 4.662348 0.000020 0.000581 0.000009
-18.411452 126.886910 19.250023 -173.373226 -46.638447 -4.647464 0.159945 26.690256 1.884985 -0.037438 4.538344 0.308119 -0.050168 7.200454 0.488977 0.056031 21.840153 1.516386 3.695887 14.642984 3.294992 3.124512 -10.279994 2.621731 0.238727 1.517690 2.195769 3.309705 -7.115619 -9.741189 -100.486116 -60.998710 146.925147 5.211647 -1.106495 -4.106803 -10.395462 -2.336171 0.215550 -9.453950 -13.003145 11.449742 63.235336 -58.907422 -108.347255 -4.023754 -9.163159 1.243008 -20.507990 -17.020881 0.743460 -6.373237 67.455169 7.928852 13.925363 -10.292592 -4.273439 0.003495 -0.006693 0.001548 14.824452 -7.544141 0.792125 -176.819474 84.892484 178.025194 -11.999996 -14.263420 4.667275 0.000746 0.001307 0.000331
